/* XPM */
static char *_c02f958ce014c85f61cc526d2817404[] = {
/* columns rows colors chars-per-pixel */
"16 16 188 2 ",
"   c #1A1A5A",
".  c #322C53",
"X  c #312D59",
"o  c #3C3655",
"O  c #37335D",
"+  c #3A345B",
"@  c #3C375F",
"#  c #1B1F68",
"$  c #242466",
"%  c #2A2961",
"&  c #20206B",
"*  c #22246B",
"=  c #252568",
"-  c #292A68",
";  c #312E65",
":  c #36336D",
">  c #423A4F",
",  c #483D56",
"<  c #413760",
"1  c #423760",
"2  c #403864",
"3  c #574B4D",
"4  c #4A425C",
"5  c #544A5C",
"6  c #62555F",
"7  c #675859",
"8  c #6D5E5B",
"9  c #4B4060",
"0  c #47416C",
"q  c #4D4A6B",
"w  c #4B477A",
"e  c #895E35",
"r  c #885E36",
"t  c #8E652F",
"y  c #966B33",
"u  c #976D33",
"i  c #966835",
"p  c #9D7535",
"a  c #9C783D",
"s  c #876C4B",
"d  c #937951",
"f  c #A07F45",
"g  c #BF8C20",
"h  c #B88925",
"j  c #AD8636",
"k  c #A7813B",
"l  c #AF8D3D",
"z  c #B28432",
"x  c #B48D37",
"c  c #B1843B",
"v  c #B3923F",
"b  c #BF923E",
"n  c #CE9B10",
"m  c #C9941B",
"M  c #D09F16",
"N  c #D29B1D",
"B  c #DDA507",
"V  c #DFA706",
"C  c #D7A10A",
"Z  c #D9A40B",
"A  c #DDA60B",
"S  c #DAA712",
"D  c #DCA712",
"F  c #DEA614",
"G  c #DCA810",
"H  c #DDA71F",
"J  c #E2AA07",
"K  c #E2AA08",
"L  c #E2AC0F",
"P  c #E2AD0F",
"I  c #E5AE0D",
"U  c #E7AF0E",
"Y  c #E9B007",
"T  c #EBB30B",
"R  c #ECB20A",
"E  c #EEB50B",
"W  c #E9B10C",
"Q  c #F1B706",
"!  c #F5B805",
"~  c #F6B905",
"^  c #F6BC06",
"/  c #F5BA0B",
"(  c #F7BE0D",
")  c #E1A810",
"_  c #E2AC10",
"`  c #E4AD15",
"'  c #EBB615",
"]  c #C28F21",
"[  c #C08D23",
"{  c #C49121",
"}  c #CB9B28",
"|  c #D09E21",
" . c #C09332",
".. c #C89630",
"X. c #C79C36",
"o. c #C4973D",
"O. c #C09D3C",
"+. c #D6A729",
"@. c #C0A13E",
"#. c #C6A03D",
"$. c #C4A13E",
"%. c #C4A43E",
"&. c #C8A73C",
"*. c #C8A83A",
"=. c #D5A332",
"-. c #DAA631",
";. c #D7A834",
":. c #DDA830",
">. c #DFAF31",
",. c #DEAF33",
"<. c #D0AA3D",
"1. c #DBAF3B",
"2. c #DCAE3B",
"3. c #EABA25",
"4. c #ECBD2D",
"5. c #F3BE21",
"6. c #E9B235",
"7. c #EEBF33",
"8. c #E7B338",
"9. c #D9C03D",
"0. c #DAC33E",
"q. c #EEC836",
"w. c #FACA33",
"e. c #F5D63E",
"r. c #FADC3B",
"t. c #9B804E",
"y. c #9E824F",
"u. c #A68341",
"i. c #A5884E",
"p. c #AA8E4F",
"a. c #B18D40",
"s. c #B48E43",
"d. c #B99844",
"f. c #A28A52",
"g. c #A08954",
"h. c #A28E55",
"j. c #D5B240",
"k. c #D5B241",
"l. c #D6B341",
"z. c #D7B546",
"x. c #D9B140",
"c. c #DAB541",
"v. c #DFB743",
"b. c #D7BA44",
"n. c #D7B947",
"m. c #D9BB40",
"M. c #D9BE41",
"N. c #D3B74C",
"B. c #DCBD4A",
"V. c #D5BC53",
"C. c #D4B65A",
"Z. c #D5BF58",
"A. c #DFC744",
"S. c #D9C05C",
"D. c #DCC85E",
"F. c #E6C245",
"G. c #EBCA45",
"H. c #E1C248",
"J. c #E1C44B",
"K. c #EACD4D",
"L. c #E8D643",
"P. c #EDD347",
"I. c #E9DC47",
"U. c #EDD44A",
"Y. c #EBD14C",
"T. c #EFDA4C",
"R. c #EEDF4C",
"E. c #EFDB55",
"W. c #ECDB5F",
"Q. c #F7F048",
"!. c #F4E552",
"~. c #F8E859",
"^. c #FCF35F",
"/. c #E2D160",
"(. c #FBD860",
"). c #F8FA61",
"_. c #FDFE6C",
"`. c #FBFF7F",
"'. c #3A3C83",
"]. c #3D3F82",
"[. c #454885",
"{. c #43478B",
"}. c #6B6DA2",
"|. c #787BA5",
" X c #7478AB",
".X c #F1EE83",
"XX c #F0F08F",
"oX c None",
/* pixels */
"oXoXoXoXoXoX X'.].}.oXoXoXoXoXoX",
"oXoXoXoX{.< 9 : 0 2 < w oXoXoXoX",
"oXoXoX, $ 6 y.i.p.g.8 & ; oXoXoX",
"oXoX+ - t.8.6.j.A.r.e.h.4 = oXoX",
"oX[.X d :.2.v.~._.).Q.q.f.@ * oX",
"oX. 5 =.1.P.Y.W..XXX`.!.>.7 O oX",
"|.  s -.x.&.v V.Z.C.S.^.,.f % # ",
"q > a ..o.j H.n./.D.s.K.;.k 3 o ",
"5.! g z o.x G.j.J.N.u.F. .h ^ ! ",
"(.J m i j.O.*.M.$.l @.U.u ] P ! ",
"oXV ) i O.R.M.9.9.<.T.d.r F D oX",
"oX7.C | c B.E.I.L.z.a.r ] I R oX",
"oXoXK Y H X.c.b.%.p t { I D oXoX",
"oXoXoXB B ' 3.+.} | ` T _ oXoXoX",
"oXoXoXoX4.n Z R _ G M W oXoXoXoX",
"oXoXoXoXoXoXw./ E ( oXoXoXoXoXoX"
};
