/* XPM */
static char *_7c6a96222734b29aa55fb22ba25207c[] = {
/* columns rows colors chars-per-pixel */
"32 32 256 2 ",
"   c #755E3E",
".  c #78603D",
"X  c #1A1C5E",
"o  c #342C5F",
"O  c #3B355C",
"+  c #383259",
"@  c #11166C",
"#  c #161C6A",
"$  c #191C6B",
"%  c #171960",
"&  c #0D1575",
"*  c #151A73",
"=  c #191E72",
"-  c #1E2164",
";  c #1D206D",
":  c #1C2073",
">  c #1E2479",
",  c #212467",
"<  c #292A65",
"1  c #22256C",
"2  c #2A2A6C",
"3  c #282867",
"4  c #332D64",
"5  c #343365",
"6  c #3A3967",
"7  c #35336C",
"8  c #3B3B6E",
"9  c #222571",
"0  c #262A72",
"q  c #2A2C72",
"w  c #272B7A",
"e  c #282C7C",
"r  c #2E3178",
"t  c #343671",
"y  c #443B54",
"u  c #443C5C",
"i  c #4A3D47",
"p  c #453F67",
"a  c #5D4D4A",
"s  c #52454A",
"d  c #594B51",
"f  c #524455",
"g  c #64534A",
"h  c #6A574C",
"j  c #745944",
"k  c #715C59",
"l  c #746253",
"z  c #7A6345",
"x  c #4A466B",
"c  c #4B4468",
"v  c #5B4D63",
"b  c #534B6E",
"n  c #524665",
"m  c #514D77",
"M  c #665765",
"N  c #7E6B66",
"B  c #865D2E",
"V  c #8B5E2B",
"C  c #8C642C",
"Z  c #91652E",
"A  c #936B2B",
"S  c #946826",
"D  c #8E6434",
"F  c #8F663B",
"G  c #906634",
"H  c #956A33",
"J  c #9D6F35",
"K  c #90663B",
"L  c #9E7233",
"P  c #9D7932",
"I  c #9B763A",
"U  c #A4752D",
"Y  c #AB7C2E",
"T  c #B07F2D",
"R  c #A37B34",
"E  c #AA7D39",
"W  c #A87D38",
"Q  c #866F58",
"!  c #88765A",
"~  c #927E58",
"^  c #857860",
"/  c #BF921E",
"(  c #AE8623",
")  c #AB842B",
"_  c #A7842B",
"`  c #B48B23",
"'  c #B98D24",
"]  c #B4852C",
"[  c #BD8D2E",
"{  c #B5882F",
"}  c #BC9122",
"|  c #BE982B",
" . c #AB8235",
".. c #AC833A",
"X. c #AF8B3D",
"o. c #AB8536",
"O. c #B78C33",
"+. c #BA8C34",
"@. c #B38F3B",
"#. c #B7893C",
"$. c #B6923A",
"%. c #BC963C",
"&. c #BE9A3C",
"*. c #BA9434",
"=. c #CE9D17",
"-. c #C3951E",
";. c #C7991C",
":. c #CC9C1A",
">. c #D49E1B",
",. c #DCA50B",
"<. c #DFA80D",
"1. c #D5A215",
"2. c #DAA413",
"3. c #D8A31B",
"4. c #EAAE01",
"5. c #E4AD0D",
"6. c #E5AB03",
"7. c #EBB20A",
"8. c #F3B705",
"9. c #F6BB04",
"0. c #FBBE03",
"q. c #F0B608",
"w. c #E2AC15",
"e. c #F1B918",
"r. c #C59123",
"t. c #C1912C",
"y. c #CB982D",
"u. c #C49534",
"i. c #C49B35",
"p. c #CD9D32",
"a. c #C3943C",
"s. c #C59A3D",
"d. c #C99C3D",
"f. c #C99630",
"g. c #DAA727",
"h. c #CCA136",
"j. c #C5A33A",
"k. c #CCA53A",
"l. c #CBAB3C",
"z. c #D5A536",
"x. c #DEAB36",
"c. c #D5A43B",
"v. c #D4AC3D",
"b. c #DCAB3A",
"n. c #D8A735",
"m. c #CDB23E",
"M. c #D3BB35",
"N. c #DCB13B",
"B. c #D8B839",
"V. c #E3AD35",
"C. c #E4B236",
"Z. c #ECB633",
"A. c #EDBB34",
"S. c #E3B33A",
"D. c #E8BD3C",
"F. c #E3BA3B",
"G. c #FFC302",
"H. c #FFC900",
"J. c #FFC40A",
"K. c #FFCB1C",
"L. c #FAC216",
"P. c #DCC33C",
"I. c #F9C626",
"U. c #E7C33B",
"Y. c #F3C63A",
"T. c #EDD23F",
"R. c #F2D23C",
"E. c #FAD13B",
"W. c #978558",
"Q. c #AA8641",
"!. c #AC8C46",
"~. c #B48E45",
"^. c #AE974C",
"/. c #BF9B45",
"(. c #B99548",
"). c #CA9D41",
"_. c #CBA241",
"`. c #C1A24C",
"'. c #CBAD49",
"]. c #CAAC44",
"[. c #D3AA42",
"{. c #D1A742",
"}. c #CDB24B",
"|. c #D4B444",
" X c #D9B442",
".X c #DCBB44",
"XX c #D4B54B",
"oX c #D4BB4C",
"OX c #D8BA46",
"+X c #CBB058",
"@X c #D4BB53",
"#X c #D7B857",
"$X c #E1BD43",
"%X c #E0BF4B",
"&X c #DEC141",
"*X c #DCC455",
"=X c #DAC85B",
"-X c #E4C543",
";X c #EBC640",
":X c #E3CA44",
">X c #E2C94F",
",X c #EACA4D",
"<X c #E7C949",
"1X c #ECD443",
"2X c #EBDB45",
"3X c #ECD34C",
"4X c #E5D444",
"5X c #F4D246",
"6X c #F3DA42",
"7X c #FAD54C",
"8X c #FBDA48",
"9X c #E6CF54",
"0X c #EDD554",
"qX c #E7D858",
"wX c #FEDA55",
"eX c #FBDB54",
"rX c #F6E944",
"tX c #F3E44A",
"yX c #FDE44A",
"uX c #F5EB4C",
"iX c #FAE848",
"pX c #F9F54A",
"aX c #EDE55F",
"sX c #F5E352",
"dX c #FAEA56",
"fX c #F8FC5E",
"gX c #FFF45A",
"hX c #DBCA69",
"jX c #D8C464",
"kX c #E8D866",
"lX c #E3CC70",
"zX c #E0D274",
"xX c #EFE363",
"cX c #F4ED65",
"vX c #FDF665",
"bX c #F9FB6D",
"nX c #FBFE74",
"mX c #FAFC7B",
"MX c #F3FE78",
"NX c #2F3380",
"BX c #303583",
"VX c #3D428C",
"CX c #474B8A",
"ZX c #444A93",
"AX c #4F5496",
"SX c #565B99",
"DX c #5A5E99",
"FX c #6D719F",
"GX c #6064A0",
"HX c #FAFE83",
"JX c #F7FF87",
"KX c #F3F498",
"LX c #F7FF99",
"PX c #F5FBA6",
"IX c #9194C0",
"UX c None",
/* pixels */
"UXUXUXUXUXUXUXUXUXUXUXUXUXUXUXUXUXUXUXUXUXUXUXUXUXUXUXUXUXUXUXUX",
"UXUXUXUXUXUXUXUXUXUXUXUXIXGXVXNXNXBXVXSXUXUXUXUXUXUXUXUXUXUXUXUX",
"UXUXUXUXUXUXUXUXUXUXAX> r q p 9 m m 8 p 9 w ZXUXUXUXUXUXUXUXUXUX",
"UXUXUXUXUXUXUXUXSX@ 7 M Q Q v q b n v k M v n ; CXUXUXUXUXUXUXUX",
"UXUXUXUXUXUXUXr $ > 7 j 4 4 8 x x c 8 9 4 f K 3 = e UXUXUXUXUXUX",
"UXUXUXUXUXUX$ j z = * 8 ^ `.[.[.[. XXX`.^ 8 $ = 9 2 q UXUXUXUXUX",
"UXUXUXUXUX* = h g 0 ~ N.C.C.d.!.W.^.OXE.E.-XW.0 * P d * UXUXUXUX",
"UXUXUXUXt y 9 & r `.Z.V.b.C.S..X;X:X1XR.1XT.E.+X8 u 4 9 9 UXUXUX",
"UXUXUXSX+ _ 3 t _.n.x.C.S.c.[.<XtXuXrXrXrXR.T.D.OX8 * u O : UXUX",
"UXUXUX@ 2 O 2 /.x.Y N.S.).[.,XgXbXbXbXfXpXpXT.a.D.'.9 d u = UXUX",
"UXUXDX- - & Q Z.x.S.F.{.5XyXdXvXmXHXJXJXMXfXpX1XU.A.W.< 2 $ ; UX",
"UXUX4 . g 4 c.] h.F.{.iXdXeX0XcXHXKXKXPXLXmXnXsXN.[ N.6 o d 3 UX",
"UXUX% - # l Z.p.x._.1XyX].X.@.%.jX|.@X#XlXmXnXvXU.z.Z.Q + a < UX",
"UXFXX < @ Q.y.n.c._.6X&.A  .*X*XjXoXjX#X).#XvXvX1Xn.y./., - ; UX",
"UXCXi   - %.T p.d.[.j.H @.9X>X>X=XhXzXhX+XE oXgX6Xu.Y h.6 y y UX",
"UXr - - < i.p.p.a._. .U OX,Xd.k.=XkX@XkX@XQ.~.eX5Xp.p.h.6 s a UX",
"UX*.( ( ' ] S t.a.).R $.5X,X%Xm.0X0X}.XX*X..I 7X5X[ S [ | ( ` UX",
"UXK.H.H.G.] U { s.).L R Y.1Xl.j.-X,X'.@X'.I I yXY.] U { J.H.H.UX",
"UXE.5.2.G.' U U d.{.%. .#.1X&XOXOX|.XX}.X.I |.yXOXU U ] J.9.8.UX",
"UXwX4.;.G.r.B Z a..X|.*. .j.&X:Xl.%.@.@.H @.8XsX%.V B t.H.' -.UX",
"UXUX4.-.0.2.G H R -X:X:XOXj.*.m.l.j. .o.m.6XsX*XJ H G 3.0.` 7.UX",
"UXUXJ.2.1.0.U H J s.tX2X4X:X:X2XuX1X$X$X-X2XqX..D G J 0.7.} 9.UX",
"UXUX7X4.-.G.2.J W #.|.cXqX&XM.M.P.P.l._..XqX~.G G F >.0.-.7.G.UX",
"UXUXUX0.' ;.G.r.E *.u..XaXaXqX4X2X4XP.:X}.E Z Z K ] H.5.;.0.UXUX",
"UXUXUXwX4.) 5.G.y.$.O.u.D.7XsXdXuX2XOX%.J Z C K ] 0.0.:.<.G.UXUX",
"UXUXUXUXK.,.5.7.0.g.s.*.j.n.N.N.k.a.W L A C H t.0.9.' 1.G.UXUXUX",
"UXUXUXUXUXG.5.) 7.H.e.C.N.j.&.) { _ A A L { w.H.8.' ;.G.UXUXUXUX",
"UXUXUXUXUXUXJ.,.` 1.0.G.L.I.F.n.k.i.h.g.e.G.H.2.7.=.G.UXUXUXUXUX",
"UXUXUXUXUXUXUXK.9.=.P =.8.0.G.G.J.J.H.G.8.2.' } q.H.UXUXUXUXUXUX",
"UXUXUXUXUXUXUXUXwX0.6./ ) ' =.7.2.<.;.' } _ 5.0.0.UXUXUXUXUXUXUX",
"UXUXUXUXUXUXUXUXUXUX7XJ.9.7.q.7.;.;.5.5.q.G.G.UXUXUXUXUXUXUXUXUX",
"UXUXUXUXUXUXUXUXUXUXUXUXUXUXUXUXUXUXUXUXUXUXUXUXUXUXUXUXUXUXUXUX"
};
