/* XPM */
static char *f59808b852804a9b8b25cb98bb69cb15[] = {
/* columns rows colors chars-per-pixel */
"64 64 256 2 ",
"   c #7C5129",
".  c #754D35",
"X  c #7B623C",
"o  c #7A501D",
"O  c #0D115E",
"+  c #342B59",
"@  c #3B355B",
"#  c #312B57",
"$  c #0E146B",
"%  c #11166B",
"&  c #14196C",
"*  c #1A1E6B",
"=  c #171A64",
"-  c #0D1474",
";  c #151A72",
":  c #191E73",
">  c #131A77",
",  c #060F6A",
"<  c #1E216B",
"1  c #1D2066",
"2  c #1D2273",
"3  c #1B2178",
"4  c #232464",
"5  c #2C2B63",
"6  c #23256C",
"7  c #2C2C6A",
"8  c #26296E",
"9  c #393667",
"0  c #212573",
"q  c #262A77",
"w  c #383B79",
"e  c #2F3171",
"r  c #251D51",
"t  c #443C54",
"y  c #4E3A48",
"u  c #403C6A",
"i  c #584A4C",
"p  c #4B415A",
"a  c #4C4251",
"s  c #564956",
"d  c #69564A",
"f  c #735D45",
"g  c #665356",
"h  c #7B6342",
"j  c #78675B",
"k  c #454469",
"l  c #565474",
"z  c #534E6A",
"x  c #746B66",
"c  c #6D656D",
"v  c #855927",
"b  c #845A31",
"n  c #8C642B",
"m  c #946B2C",
"M  c #986B2C",
"N  c #9C742C",
"B  c #886939",
"V  c #926635",
"C  c #946A33",
"Z  c #9B6D34",
"A  c #956A3A",
"S  c #8E713A",
"D  c #947435",
"F  c #9D7232",
"G  c #9B7A32",
"H  c #9B723A",
"J  c #A3762E",
"K  c #A37D2D",
"L  c #AC7D2D",
"P  c #AA7628",
"I  c #A37533",
"U  c #A47C32",
"Y  c #AC7C33",
"T  c #A7793A",
"R  c #A77130",
"E  c #8A651F",
"W  c #836747",
"Q  c #8A775A",
"!  c #8F7252",
"~  c #A27B43",
"^  c #8B7B68",
"/  c #AC842B",
"(  c #A8842B",
")  c #B3842D",
"_  c #B28B2B",
"`  c #B88C28",
"'  c #BC9325",
"]  c #AC8335",
"[  c #AC833A",
"{  c #A98636",
"}  c #B28434",
"|  c #B48C34",
" . c #BA8D34",
".. c #B3853B",
"X. c #B48C39",
"o. c #BB8D3B",
"O. c #BA8639",
"+. c #BC9234",
"@. c #BB953A",
"#. c #B9953A",
"$. c #AF923A",
"%. c #BFA138",
"&. c #CB9C1A",
"*. c #C4971E",
"=. c #D19E1A",
"-. c #D4A216",
";. c #DAA613",
":. c #DEA911",
">. c #D5A21A",
",. c #E4AD0E",
"<. c #ECB30A",
"1. c #E6B20D",
"2. c #F5BA06",
"3. c #FDBE01",
"4. c #F0B508",
"5. c #F8BC0A",
"6. c #E1AA11",
"7. c #EEB818",
"8. c #C18D2C",
"9. c #C8972A",
"0. c #C49A34",
"q. c #CB9B32",
"w. c #C49B3C",
"e. c #CB9B3C",
"r. c #C59536",
"t. c #D19E37",
"y. c #C59233",
"u. c #C7A62C",
"i. c #D6A42A",
"p. c #C4A23D",
"a. c #CCA33C",
"s. c #CCAB3C",
"d. c #C9A434",
"f. c #D4A234",
"g. c #DDAC35",
"h. c #D3A43B",
"j. c #D2AB3D",
"k. c #DDAB3A",
"l. c #D9A636",
"z. c #D4B23D",
"x. c #DCB23C",
"c. c #DBBB3D",
"v. c #D6B73B",
"b. c #CEB332",
"n. c #E1AE35",
"m. c #E1AD3C",
"M. c #E3B234",
"N. c #E4B43B",
"B. c #E4BB3C",
"V. c #EABC3A",
"C. c #EBB736",
"Z. c #EDBA2B",
"A. c #FFC201",
"S. c #FEC30C",
"D. c #FFCA00",
"F. c #FDC416",
"G. c #DCC63B",
"H. c #FDC927",
"J. c #EAC33D",
"K. c #E9C93D",
"L. c #F4C93A",
"P. c #ECD33E",
"I. c #F1D53C",
"U. c #F1E13F",
"Y. c #988256",
"T. c #8E805E",
"R. c #A98944",
"E. c #B58B43",
"W. c #B99746",
"Q. c #AE9657",
"!. c #BDA24D",
"~. c #B5A35C",
"^. c #978C63",
"/. c #A58F6B",
"(. c #C39B42",
"). c #C69842",
"_. c #CC9641",
"`. c #C9A744",
"'. c #D3AB42",
"]. c #D5A844",
"[. c #CEB347",
"{. c #D5B342",
"}. c #DBB542",
"|. c #DBBB43",
" X c #D6B849",
".X c #C5A654",
"XX c #CDB556",
"oX c #D4BA55",
"OX c #E3BC42",
"+X c #E7BA42",
"@X c #E0AB41",
"#X c #C8AE68",
"$X c #DDC348",
"%X c #DAC558",
"&X c #E3C444",
"*X c #ECC443",
"=X c #E2CC44",
"-X c #EBCC43",
";X c #E6C74B",
":X c #F6CB43",
">X c #E5D244",
",X c #ECD444",
"<X c #EBD849",
"1X c #F3D443",
"2X c #FBD244",
"3X c #F3DA42",
"4X c #FBDC44",
"5X c #F7D94C",
"6X c #E2C552",
"7X c #E9D75A",
"8X c #F8DC55",
"9X c #EEE34B",
"0X c #F4E344",
"qX c #FCE446",
"wX c #F3E44C",
"eX c #FCE44B",
"rX c #F8EB47",
"tX c #FBF74A",
"yX c #FCE354",
"uX c #FCEA54",
"iX c #FDEC5A",
"pX c #F5E457",
"aX c #FAF959",
"sX c #EBE158",
"dX c #DBC86A",
"fX c #DDCD72",
"gX c #E9D964",
"hX c #FDD965",
"jX c #EED775",
"kX c #F5E865",
"lX c #FDF664",
"zX c #F9F868",
"xX c #FCFD74",
"cX c #FBFE7B",
"vX c #F5FA76",
"bX c #EEE572",
"nX c #363981",
"mX c #3E4287",
"MX c #454789",
"NX c #565895",
"BX c #505390",
"VX c #5F629E",
"CX c #6E6D90",
"ZX c #7679A9",
"AX c #6769A1",
"SX c #867D81",
"DX c #7E80B3",
"FX c #8789B2",
"GX c #F7FD86",
"HX c #F8FE98",
"JX c #F1E48C",
"KX c #F7FBA7",
"LX c #F5F9AF",
"PX c #E3D483",
"IX c #9FA3C0",
"UX c None",
/* pixels */
"UXUXUXUXUXUXUXUXUXUXUXUXUXUXUXUXUXUXUXUXUXUXUXUXUXUXUXUXUXUXUXUXUXUXUXUXUXUXUXUXUXUXUXUXUXUXUXUXUXUXUXUXUXUXUXUXUXUXUXUXUXUXUXUX",
"UXUXUXUXUXUXUXUXUXUXUXUXUXUXUXUXUXUXUXUXUXUXUXUXUXUXUXFXZXAXNXBXMXNXVXAXFXUXUXUXUXUXUXUXUXUXUXUXUXUXUXUXUXUXUXUXUXUXUXUXUXUXUXUX",
"UXUXUXUXUXUXUXUXUXUXUXUXUXUXUXUXUXUXUXUXUXUXUXZXMXq : ; : : : : 3 % ; ; ; : q mXVXUXUXUXUXUXUXUXUXUXUXUXUXUXUXUXUXUXUXUXUXUXUXUX",
"UXUXUXUXUXUXUXUXUXUXUXUXUXUXUXUXUXUXUXUXDXnX* ; > : 3 q q 0 0 3 nXmXw 0 : 3 3 : & : nXNXUXUXUXUXUXUXUXUXUXUXUXUXUXUXUXUXUXUXUXUX",
"UXUXUXUXUXUXUXUXUXUXUXUXUXUXUXUXUXUXAXq % ; : q w z 0 l /.9 3 q /.g j 6 CX^ j 0 q q 3 - 0 BXUXUXUXUXUXUXUXUXUXUXUXUXUXUXUXUXUXUX",
"UXUXUXUXUXUXUXUXUXUXUXUXUXUXUXUXDX0 * 0 q MXl w #XQ.p 7 /.g ; w #X9 u w #Xr #X5 SX^ 0 nX3 ; 0 BXUXUXUXUXUXUXUXUXUXUXUXUXUXUXUXUX",
"UXUXUXUXUXUXUXUXUXUXUXUXUXUXUXnX% 3 0 : c Q.i ; /.E.j u ! p : 3 z ! s 0 ! j ! 6 /.y w .Xp 9 2 : q UXUXUXUXUXUXUXUXUXUXUXUXUXUXUX",
"UXUXUXUXUXUXUXUXUXUXUXUXUXZX& : 0 0 0 : 5 8.W g s . + : * ; : > - - - : : + = u R 4 ^ P T y : 2 0 : MXUXUXUXUXUXUXUXUXUXUXUXUXUX",
"UXUXUXUXUXUXUXUXUXUXUXUXNX$ 2 0 > 2 0 2 3 ! W + % - > q e l l c l l l w q > > 3 * e d A Z % 0 0 0 0 : nXUXUXUXUXUXUXUXUXUXUXUXUX",
"UXUXUXUXUXUXUXUXUXUXUXMX$ 9 W W g 3 0 0 6 1 $ > e c ^..XoX;X+XL.:X+X:X;XXXQ.x k 3 > ; + # 2 0 0 0 : 0 : 0 UXUXUXUXUXUXUXUXUXUXUX",
"UXUXUXUXUXUXUXUXUXUXmX& 3 s d s S 2 2 0 : > l /.oXV.V.M.n.t.k.).).N.m.C.*XL.:X;X~.c 0 > 3 0 0 0 0 7 e 7 8 q UXUXUXUXUXUXUXUXUXUX",
"UXUXUXUXUXUXUXUXUXMX& 0 3 p ;.1.D > 2 : z ~.*XC.n.h.g.M.(.Q x.j j +XR.Q.*X+XJ.V.L.:XoXx 0 : 2 0 0 p / S 8 0 0 UXUXUXUXUXUXUXUXUX",
"UXUXUXUXUXUXUXUXNX$ 2 2 2 7 s p @ > q ^.+XC.n.g.k.l.@Xm.p.Q j.Q ^ c.T.Q.I.L.I.K.;X*XL.I.~.k ; 2 0 s 3.( 0 2 2 0 UXUXUXUXUXUXUXUX",
"UXUXUXUXUXUXUXDX% 9 8 2 0 2 : : - z XXC.n.n.n.k.n.n.N.@XM.(.z.}.}.G.!.&X-XP.I.,X-X:XP.J.L.;Xx 2 : 9 G p 6 0 6 2 q UXUXUXUXUXUXUX",
"UXUXUXUXUXUXUX% @ f f e 2 < 2 > l B.C.n.m.n.m.@Xn.n.M.C.V.J.:XP.3X3XU.3X1XI.U.I.1XP.I.P.-XJ.2XT.2 : 7 0 : 2 : : 6 UXUXUXUXUXUXUX",
"UXUXUXUXUXUXnX- s D ( @ : 2 % c J.n.m.n.n.n.m.@Xk.N.C.V.J.>X,X0X0X0XrXrXqX0X0X0X3X,X1X,XP.K.J.2XQ.< : 0 * 9 s s 0 6 UXUXUXUXUXUX",
"UXUXUXUXUXFX= : s &.*.9 2 ; z V.N.q.y.n.n.n.k.N.J.m.t.E.r.].&X<X9X9X9X0X0XrXtXrXrXU.U.U.1X&Xz.J.P./.& < : a p d 7 : 0 UXUXUXUXUX",
"UXUXUXUXUX0 < : p s i @ ; u }.M.t.M m a.n.m.J.*X).T E.].;XpXlXlXxXxXzXzXaXrXtXtXtXrXqXU.-Xy.L s.V.*XT.; : p 8 p 7 < < UXUXUXUXUX",
"UXUXUXUXAX% < < 2 < : < 2 `.C.M.k.Y K k.N.1X}.O...}.2XyXiXiXlXxXxXxXcXcXvXvXzXaXtXtXtXrX3Xd.X.N.J.Z.&Xl - i / U 6 < < < UXUXUXUX",
"UXUXUXUXe * < < < < < % x V.n.g.n.k.l.M.1X'.O.].5X5X5X8XyXiXlXxXcXcXcXcXvXvXvXvXaXtXtXtX0X,X-XJ.J.G.C.XX8 7 i t < < < 2 UXUXUXUX",
"UXUXUXFX= < : ; * < * u N.C.k.M.n.g.N.1Xh.o.*XeXeX8X5XwXyXkXzXxXcXGXGXGXGXGXHXGXGXvXaXzXtXU.P.K.J.N.N.J.Q & ; : : : * < < UXUXUX",
"UXUXUXmX= X S B a * ; Y.C.q.L q.g.N.1X'._.-XrXeXeXeX8XyXiXiXzXcXcXGXHXHXHXKXHXHXGXGXvXvXxXrXI.J.B._ d.m.+X9 * < @ t @ < < UXUXUX",
"UXUXUX= 4 G G K D & 9 k.n. .v ] N.J.|.O.*XrXeXeXeXiXyXpX8XkXxXcXHXKXKXLXLXLXLXHXGXGXcXvXGXzXqXL.h.n L M.V.Q $ 4 d p i 9 < UXUXUX",
"UXUXFXO 4 5 * * 5 % ! C.M.q. .8.B.*XO.].qXqXrXuX8X XW.] X.W..XgXbXdXoX X XdXPXKXKXGXvXvXvXGXuXI.v.0.9.M.n.@X7 5 X d d t * < UXUX",
"UXUXBX= < * 1 < * < W.M.n.g.n.n.J._.E.-X3XqXqX[.G M G .XX.X. .`.oXs.z.z.fXoXl.h.dXGXcXxXzXxXlX3XV.B.m.n.g.J.g = i @ i 5 * 1 UXUX",
"UXUXe 1 1 1 * 1 & p g.v.l.l.g.n.B...].1X4XeX#.n C J Y XX#.w.%.XXfXb.b.b.PXoXh.e.O.).bXxXlXlXzXwXV.k.n.l.g.V.Y.% 5 + 5 1 1 1 UXUX",
"UXUX= 1 1 & 5 1 = j M.9.J y.l.N.t...}.-X4Xw.A X.F N ..XXgXbXbXjXoX XfXfXdXfXoXe.oX.XE.zXlXiXlXuXJ.g.f.Y  .i.{.7 * = * * < 1 UXUX",
"UXIXO 4 X ( X & % ! M./ v ) l.N.O.W.|.J.{.n { oXJ W.kXlXkXpXkXkXfXfX%XXXoXoX#XdX#X.XR .XzXiXiXiXJ.z.` v N l.x.k 1 @ 4 4 4 1 UXUX",
"UXFXO 1 i &.a = 1 X.l.y.] +.l.g.E.).}.&XU n F J $.kXuX$Xa.a.s.%X%XXXPXJXJXJXXX!.oX] I Z sXiXuXiX-Xl.y.]  .f.x.z O a . f a 1 1 UX",
"UXZXO 4 i # i = 7 w.q.f.f.q.t.h...).k.'.n M F F 6XyX}.| +.d.'.%X[.bXbX%XXXbXcXoXW..XR n XXiX5XuX:Xf.q.f.t.q.l.j O @ D K i * 1 UX",
"UXCXO O % % = O 5 0.q.9.9.q.q.t.E.).].o.A U U w.5X:X`.`.a.u. X{.7XbX6Xs.%X`.%XzX#..XR.~ E.yX5XeX:Xf.9.q.q.9.u.j , 1 X X 5 = = UX",
"UXCXt t t t t t i 0.8.P Y 8.q.q.E.r.h.[ [ %.z.5X:X5X8X8X$Xq.%X{.bXiX7X'.gX(.oXlX(.E.!.W.~ 8X5X4X:Xq.8.Y P ` u.Y.@ t a a t t t UX",
"UX2X3.3.3.A.3.A.3.8.P v v ) y.t.E.).h.[ n m ] z.2X&X{. Xj.d.6Xx.sXyX7Xp.%Xp.`.iX(.E.G b ~ 8X2X4X:Xq.) v o K  .7.A.A.3.A.3.3.A.UX",
"UX5X3.A.A.3.A.A.S.` ) M m ) ` r.w.).).| b C z.4X2X1X8XpX|.q. Xj.7XyX$Xw.gX'.[ kX$.R.D   R.8X2X4X*X8.) P m L ` 7.A.3.3.A.A.A.A.UX",
"UXhX3.3.3.3.3.A.3.' L ) / L ) e._.).).(.V m X.%.2X5X{.h.a.0.s.j.x.8X X(.@..X7X6XU !.b   (.8X2XqX+X` L ) ) ) ) 7.A.3.A.3.3.A.3.UX",
"UXjX3.A.A.A.3.A.A.9.L L L L / r.h.`.).'.H X.o.I '.qX,Xd.+.0.%. Xa.}.pX7X%XkX<XU !.E.!.b 6X2XI.eXh.L L L / L ) 7.3.3.A.3.3.3.3.UX",
"UXJX3.3./ X :.D.A.=.I Y J U L O.@X'.(.{.@.X.X.U X.G.rXeX;X$X$X$X Xp.%.[.[.0.{ !.E.H { R.qX2X5XsXw.L J M L J  .S.A.3.<.A.A.3.UXUX",
"UXUX3.3.;./ ;.A.A.6.I m   v N ] s.&X].j.|.$.F U ] | v.eXqXeXeXuX|.`.'.`.W..X!.T C b B >X4X3XyX>X} Z v   M I 0.A.3.A.` h :.A.UXUX",
"UXUXF.3.A.;.>.A.3.5.J Z     I R w.-X|.'.}.$X$.I $.s.X.d.z.c.|.b.p. .X.#.X.[ { { b V =XqX4X5XkXp.J I v   D Z i.A.A.<.h K 2.A.UXUX",
"UXUXL.3.;.G >.3.3.3.` V Z Z Z F } $X<X|.|.=X>Xp.%.v.| #.$.z.[.$.| | |.X.J C $.$.G <XqX3X,XsX7X] Z Z Z F C T 7.A.A.<.&.,.3.3.UXUX",
"UXUXhX3.4.U ( <.A.A.>.V C Z Z Z T w.3X<X|.=X>X>X=X`.p.%.#.`.s.v.G.%.p.{ J ( X.{.9X0X<X,XsXkX!.F V C C C V  .A.A.2.G ( =.A.A.UXUX",
"UXUXUX3.A.A.:.W 3.A.2.J V C C H I } |.tX<X=X>X>X<X>X>X>X=X<X9XrXrX9X>X&X&X;X-X-X,X,X-X,XkXoX/ V V n C V A >.A.A.3._ ( -.A.UXUXUX",
"UXUXUXH.3.1./ &.2.A.A.*.V Z Z I T Y ).>XtX3X>X>X>X=X$X&X>X<X9XrX9X0X<X-XOX}.}.|.|.G.;XlX7X..C V V V V V T 5.A.A.&.' 1.A.3.UXUXUX",
"UXUXUXbX3.3.D.*.=.A.A.2.T Z F T T Y O.].9XlXsX=XG.&X&X&Xv.G.=XG.>XG.G.d.}.j.].'.'.$XkXgX).H V V V A A A >.A.A.<.6.' ,.A.3.UXUXUX",
"UXUXUXUXS.3.;.G *.1.A.A.;.Z T Y ..X.O.r.v.sXcXkX6X|.G.&Xb.b.b.' G.u.c.u.{.`.w.e.6XkX%X@.I A A A S C V ) S.A.A.G D 2.A.3.UXUXUXUX",
"UXUXUXUXhX3.4.` ' -.A.A.3.8.T Y ] X.E.o.e.x.7XvXvXsX&X&Xb.G.G.G.<XG.G.{.'.a.x.7XsX`.Y Z C V V V A C I 7.A.A.1.;.;.;.A.3.UXUXUXUX",
"UXUXUXUXUXF.3.A._ h &.A.A.5.) Y }  .y.w.e.h.j.&XsXvXvXaXuX9XwXrX9X9X>X>X<XwXsXoX[ Z Z C C E C C A H >.A.A.4.:.K <.A.3.UXUXUXUXUX",
"UXUXUXUXUXhX3.A.` h ;.2.3.A.<.} E.y.w.@.) h.@X+XV.&XsXzXzXzXaXaXaXtXtXrX8X XO.I F H A V C v V Z A =.A.A.D.1.K ( ;.A.A.UXUXUXUXUX",
"UXUXUXUXUXUXH.3.2.4.D S 2.A.A.1.o. ._.(  .0.0.B.*X:X:X*X<X<X9X9X9X>X$Xs.@.[ U U F H m n C Z Z Z i.A.3.A.,.2.<.:.A.A.UXUXUXUXUXUX",
"UXUXUXUXUXUXUX3.A.&.S -.3.A.A.A.4.y.(.+.@.( K d.+X2X2X*XJ.B.$Xc.v.a.0.o.....T Z N E   n m H H i.3.3.A.<.&.G ( A.A.UXUXUXUXUXUXUX",
"UXUXUXUXUXUXUXhX3.A.1.A.A.;.2.A.A.2.q.w.h.w.h.0.+.d.h.h.j.}.].a.p.W.W.} U I N n m m m Z H ..7.A.A.A.:.G / 6.<.A.3.UXUXUXUXUXUXUX",
"UXUXUXUXUXUXUXUX2X3.A.A.&.d / D.A.A.A.7.h.}.B.s.c.( d._ | ` +. .` `  .N E m E Z m Z F U f.5.A.3.A.2.:.G U 2.A.3.UXUXUXUXUXUXUXUX",
"UXUXUXUXUXUXUXUXUXH.3.3.&.' -.' 4.A.A.A.2.Z.x.B.B.x.*X0.s./ ( ( w./ K N m K U F F ] d.7.A.A.A.A.,.B ' ;.,.A.3.UXUXUXUXUXUXUXUXUX",
"UXUXUXUXUXUXUXUXUXUXH.3.A.A.( f 6.:.A.A.3.A.S.Z.V.&Xc.}.x.0.e.@.|  .] ....} o.e.M.F.A.A.3.A.2.3.S./ X A.A.3.UXUXUXUXUXUXUXUXUXUX",
"UXUXUXUXUXUXUXUXUXUXUXH.3.3.4._ :.f &.2.A.3.3.A.A.F.H.L.V.OXx.x.j.s.j.g.B.Z.H.S.A.A.A.A.D.1.U :.A.2.4.A.A.UXUXUXUXUXUXUXUXUXUXUX",
"UXUXUXUXUXUXUXUXUXUXUXUX2X3.A.A.&.' ,.S :.<.A.A.A.3.3.3.A.S.S.F.F.S.S.S.A.A.3.3.A.A.3.4.' <.D &.A.A.A.A.UXUXUXUXUXUXUXUXUXUXUXUX",
"UXUXUXUXUXUXUXUXUXUXUXUXUXhX5.3.3.D.` B d &.( ,.2.A.A.A.A.3.3.A.A.A.3.3.A.A.A.A.<.-./ -.h ( A.<.A.3.A.UXUXUXUXUXUXUXUXUXUXUXUXUX",
"UXUXUXUXUXUXUXUXUXUXUXUXUXUXUXH.3.3.3.1.>.( S :.B ;.,.*.1.A.A.2.3.A.A.4.-.<./ *./ h f :.&.<.3.A.3.UXUXUXUXUXUXUXUXUXUXUXUXUXUXUX",
"UXUXUXUXUXUXUXUXUXUXUXUXUXUXUXUXhX3.3.3.A.&.` ;.B h 2.S ,.A.-.D 1.;.( 1.B 4.f ( 2.G *.2.A.A.2.A.UXUXUXUXUXUXUXUXUXUXUXUXUXUXUXUX",
"UXUXUXUXUXUXUXUXUXUXUXUXUXUXUXUXUXUX8XS.3.A.A.2.1.*.A.*.A.A._ G ' ` f 4.( 2.&._ 3.A.A.3.A.A.UXUXUXUXUXUXUXUXUXUXUXUXUXUXUXUXUXUX",
"UXUXUXUXUXUXUXUXUXUXUXUXUXUXUXUXUXUXUXUXhXF.3.3.A.D.3.A.3.A.4._ ;.6.:.1.A.2.A.A.3.3.A.S.UXUXUXUXUXUXUXUXUXUXUXUXUXUXUXUXUXUXUXUX",
"UXUXUXUXUXUXUXUXUXUXUXUXUXUXUXUXUXUXUXUXUXUXUX5XH.A.3.3.3.A.A.A.A.A.A.A.A.3.A.A.S.UXUXUXUXUXUXUXUXUXUXUXUXUXUXUXUXUXUXUXUXUXUXUX",
"UXUXUXUXUXUXUXUXUXUXUXUXUXUXUXUXUXUXUXUXUXUXUXUXUXUXUXUXH.H.S.A.3.S.F.F.UXUXUXUXUXUXUXUXUXUXUXUXUXUXUXUXUXUXUXUXUXUXUXUXUXUXUXUX",
"UXUXUXUXUXUXUXUXUXUXUXUXUXUXUXUXUXUXUXUXUXUXUXUXUXUXUXUXUXUXUXUXUXUXUXUXUXUXUXUXUXUXUXUXUXUXUXUXUXUXUXUXUXUXUXUXUXUXUXUXUXUXUXUX"
};
